<mxfile host="app.diagrams.net" modified="2020-11-23T11:28:47.338Z" agent="5.0 (X11; Linux x86_64) AppleWebKit/537.36 (KHTML, like Gecko) Chrome/86.0.4240.111 Safari/537.36" etag="t3kaV3Qkt9Z3Gqt-gSqu" version="13.9.9" type="github">
  <diagram id="rAH2tptxaiKPJn4yS_jS" name="Page-1">
    <mxGraphModel dx="492" dy="858" grid="1" gridSize="10" guides="1" tooltips="1" connect="1" arrows="1" fold="1" page="1" pageScale="1" pageWidth="850" pageHeight="1100" math="0" shadow="0">
      <root>
        <mxCell id="0" />
        <mxCell id="1" parent="0" />
        <mxCell id="egyjPyst0f5TYc5Z0qGQ-1" value="" style="shape=mxgraph.signs.animals.sloth;html=1;pointerEvents=1;fillColor=#d5e8d4;strokeColor=#82b366;verticalLabelPosition=bottom;verticalAlign=top;align=center;opacity=50;" vertex="1" parent="1">
          <mxGeometry x="40" y="40" width="40" height="41" as="geometry" />
        </mxCell>
        <mxCell id="egyjPyst0f5TYc5Z0qGQ-2" value="" style="shape=mxgraph.signs.animals.sloth;html=1;pointerEvents=1;fillColor=#f8cecc;strokeColor=#b85450;verticalLabelPosition=bottom;verticalAlign=top;align=center;opacity=50;" vertex="1" parent="1">
          <mxGeometry x="235" y="40" width="40" height="41" as="geometry" />
        </mxCell>
        <mxCell id="egyjPyst0f5TYc5Z0qGQ-3" value="" style="rounded=1;whiteSpace=wrap;html=1;" vertex="1" parent="1">
          <mxGeometry x="40" y="81" width="120" height="130" as="geometry" />
        </mxCell>
        <mxCell id="egyjPyst0f5TYc5Z0qGQ-4" value="" style="rounded=1;whiteSpace=wrap;html=1;" vertex="1" parent="1">
          <mxGeometry x="235" y="81" width="120" height="130" as="geometry" />
        </mxCell>
        <mxCell id="egyjPyst0f5TYc5Z0qGQ-7" value="&lt;b&gt;Process 0&lt;/b&gt;" style="text;html=1;strokeColor=none;fillColor=none;align=center;verticalAlign=middle;whiteSpace=wrap;rounded=0;" vertex="1" parent="1">
          <mxGeometry x="40" y="61" width="60" height="20" as="geometry" />
        </mxCell>
        <mxCell id="egyjPyst0f5TYc5Z0qGQ-8" value="&lt;b&gt;Process 1&lt;/b&gt;" style="text;html=1;strokeColor=none;fillColor=none;align=center;verticalAlign=middle;whiteSpace=wrap;rounded=0;" vertex="1" parent="1">
          <mxGeometry x="230.5" y="61" width="60" height="20" as="geometry" />
        </mxCell>
        <mxCell id="egyjPyst0f5TYc5Z0qGQ-9" value="&lt;b&gt;Memory&lt;/b&gt;" style="text;html=1;strokeColor=none;fillColor=none;align=center;verticalAlign=middle;whiteSpace=wrap;rounded=0;" vertex="1" parent="1">
          <mxGeometry x="40" y="81" width="60" height="20" as="geometry" />
        </mxCell>
        <mxCell id="egyjPyst0f5TYc5Z0qGQ-10" value="&lt;b&gt;Memory&lt;/b&gt;" style="text;html=1;strokeColor=none;fillColor=none;align=center;verticalAlign=middle;whiteSpace=wrap;rounded=0;" vertex="1" parent="1">
          <mxGeometry x="235" y="81" width="60" height="20" as="geometry" />
        </mxCell>
        <mxCell id="egyjPyst0f5TYc5Z0qGQ-11" value="" style="rhombus;whiteSpace=wrap;html=1;fillColor=#CCFFFF;strokeColor=none;shadow=0;" vertex="1" parent="1">
          <mxGeometry x="100.5" y="151" width="59.5" height="60" as="geometry" />
        </mxCell>
        <mxCell id="egyjPyst0f5TYc5Z0qGQ-14" value="&lt;b&gt;Window&lt;/b&gt;" style="text;html=1;strokeColor=none;fillColor=none;align=center;verticalAlign=middle;whiteSpace=wrap;rounded=0;shadow=0;" vertex="1" parent="1">
          <mxGeometry x="105.25" y="191" width="50" height="20" as="geometry" />
        </mxCell>
        <mxCell id="egyjPyst0f5TYc5Z0qGQ-15" value="" style="rhombus;whiteSpace=wrap;html=1;fillColor=#CCFFFF;strokeColor=none;shadow=0;" vertex="1" parent="1">
          <mxGeometry x="295.5" y="151" width="59.5" height="60" as="geometry" />
        </mxCell>
        <mxCell id="egyjPyst0f5TYc5Z0qGQ-16" value="&lt;b&gt;Window&lt;/b&gt;" style="text;html=1;strokeColor=none;fillColor=none;align=center;verticalAlign=middle;whiteSpace=wrap;rounded=0;shadow=0;" vertex="1" parent="1">
          <mxGeometry x="300.25" y="196" width="50" height="10" as="geometry" />
        </mxCell>
        <mxCell id="egyjPyst0f5TYc5Z0qGQ-19" value="" style="verticalLabelPosition=bottom;verticalAlign=top;html=1;shape=mxgraph.basic.diag_round_rect;dx=6;shadow=0;strokeColor=none;fillColor=#FFE6CC;opacity=50;" vertex="1" parent="1">
          <mxGeometry x="49.75" y="101" width="40.5" height="30" as="geometry" />
        </mxCell>
        <mxCell id="egyjPyst0f5TYc5Z0qGQ-20" value="" style="verticalLabelPosition=bottom;verticalAlign=top;html=1;shape=mxgraph.basic.diag_round_rect;dx=6;shadow=0;strokeColor=none;fillColor=#FFE6CC;opacity=50;fontFamily=Helvetica;" vertex="1" parent="1">
          <mxGeometry x="244.75" y="101" width="40.5" height="30" as="geometry" />
        </mxCell>
        <mxCell id="egyjPyst0f5TYc5Z0qGQ-21" value="" style="endArrow=ERmany;html=1;exitX=1;exitY=0;exitDx=0;exitDy=0;entryX=0;entryY=0.5;entryDx=0;entryDy=0;entryPerimeter=0;strokeColor=#FF6666;fillColor=#FF6666;startArrow=none;startFill=0;endFill=0;strokeWidth=2;" edge="1" parent="1" source="egyjPyst0f5TYc5Z0qGQ-11" target="egyjPyst0f5TYc5Z0qGQ-20">
          <mxGeometry width="50" height="50" relative="1" as="geometry">
            <mxPoint x="194.75" y="171" as="sourcePoint" />
            <mxPoint x="244.75" y="121" as="targetPoint" />
            <Array as="points">
              <mxPoint x="190.5" y="116" />
            </Array>
          </mxGeometry>
        </mxCell>
        <mxCell id="egyjPyst0f5TYc5Z0qGQ-24" value="&lt;p&gt;&lt;b&gt;Y&lt;/b&gt;&lt;/p&gt;" style="text;html=1;strokeColor=none;fillColor=none;align=center;verticalAlign=middle;whiteSpace=wrap;rounded=0;shadow=0;fontFamily=Helvetica;opacity=50;" vertex="1" parent="1">
          <mxGeometry x="244.75" y="106" width="40" height="20" as="geometry" />
        </mxCell>
        <mxCell id="egyjPyst0f5TYc5Z0qGQ-25" value="&lt;p&gt;&lt;b&gt;Y&lt;/b&gt;&lt;/p&gt;" style="text;html=1;strokeColor=none;fillColor=none;align=center;verticalAlign=middle;whiteSpace=wrap;rounded=0;shadow=0;fontFamily=Helvetica;opacity=50;" vertex="1" parent="1">
          <mxGeometry x="110.25" y="171" width="40" height="20" as="geometry" />
        </mxCell>
      </root>
    </mxGraphModel>
  </diagram>
</mxfile>
